<svg xmlns="http://www.w3.org/2000/svg" version="1.1" xmlns:xlink="http://www.w3.org/1999/xlink" xmlns:svgjs="http://svgjs.dev/svgjs" viewBox="0 0 800 800"><defs><filter id="llleaves-blur-2" x="-100%" y="-100%" width="400%" height="400%"><feGaussianBlur in="SourceGraphic" stdDeviation="2"></feGaussianBlur></filter><filter id="llleaves-blur-3" x="-100%" y="-100%" width="400%" height="400%"><feGaussianBlur in="SourceGraphic" stdDeviation="4"></feGaussianBlur></filter><filter id="llleaves-blur-4" x="-100%" y="-100%" width="400%" height="400%"><feGaussianBlur in="SourceGraphic" stdDeviation="12"></feGaussianBlur></filter></defs><g fill="#b6b3f3"><path d="M100 625H150C178 625 200 647 200 675H150C122 675 100 653 100 625Z " transform="matrix(0.5092538419185807,-0.3182171181569993,0.3182171181569993,0.5092538419185807,-133.2292030898367,366.7175704764725)" opacity="0.92"></path><path d="M440 228H490C518 228 540 250 540 278H490C462 278 440 256 440 228Z " transform="matrix(0.1385983154819514,-0.517255955222102,0.517255955222102,0.1385983154819514,291.221068742652,471.3900442418962)" opacity="0.82"></path><path d="M616 31H666C694 31 716 53 716 81H666C638 81 616 59 616 31Z " transform="matrix(-0.1465125057655649,0.24383775725339163,-0.24383775725339163,-0.1465125057655649,777.2322432460561,-98.19124600788717)" filter="url(#llleaves-blur-3)" opacity="0.44"></path><path d="M245 524H295C323 524 345 546 345 574H295C267 574 245 552 245 524Z " transform="matrix(0.60165896702635,-0.17252293259521706,0.17252293259521706,0.60165896702635,22.795514732452602,269.5834922181229)" opacity="0.96"></path><path d="M429 27H479C507 27 529 49 529 77H479C451 77 429 55 429 27Z " transform="matrix(-0.16497084198595285,-0.4532536632248211,0.4532536632248211,-0.16497084198595285,534.4518428235807,277.6869884679588)" opacity="0.74"></path><path d="M627 644H677C705 644 727 666 727 694H677C649 694 627 672 627 644Z " transform="matrix(-0.3832840835613309,-0.047061367901150314,0.047061367901150314,-0.3832840835613309,904.9992694451513,957.2775979716091)" filter="url(#llleaves-blur-2)" opacity="0.59"></path><path d="M202 428H252C280 428 302 450 302 478H252C224 478 202 456 202 428Z " transform="matrix(0.6058624355574003,-0.16234035033195848,0.16234035033195848,0.6058624355574003,25.782487539157927,219.4540849761512)" opacity="0.96"></path><path d="M701 422H751C779 422 801 444 801 472H751C723 472 701 450 701 422Z " transform="matrix(-0.29370071596672426,0.1561634407652365,-0.1561634407652365,-0.29370071596672426,1041.3742957130708,461.00547602243313)" filter="url(#llleaves-blur-2)" opacity="0.51"></path><path d="M220 21H270C298 21 320 43 320 71H270C242 71 220 49 220 21Z " transform="matrix(0.3249408498012166,-0.4640636269526964,0.4640636269526964,0.3249408498012166,160.9190437138475,156.34990018637205)" opacity="0.87"></path><path d="M1 395H51C79 395 101 417 101 445H51C23 445 1 423 1 395Z " transform="matrix(0.25122107845641023,-0.4930491277828845,0.4930491277828845,0.25122107845641023,-168.8929086700884,339.6326525652348)" opacity="0.85"></path><path d="M497 132H547C575 132 597 154 597 182H547C519 182 497 160 497 132Z " transform="matrix(-0.19358939782935555,-0.43480890656270577,0.43480890656270577,-0.19358939782935555,584.6284022823127,425.2340073490089)" opacity="0.73"></path><path d="M417 420H467C495 420 517 442 517 470H467C439 470 417 448 417 420Z " transform="matrix(0.21403745639605104,-0.5042406480255356,0.5042406480255356,0.21403745639605104,142.6574194916808,585.2337145316824)" opacity="0.84"></path><path d="M1 609H51C79 609 101 631 101 659H51C23 659 1 637 1 609Z " transform="matrix(0.25122107845641023,-0.4930491277828845,0.4930491277828845,0.25122107845641023,-274.4054220156257,499.871341775563)" opacity="0.85"></path><path d="M188 719H238C266 719 288 741 288 769H238C210 769 188 747 188 719Z " transform="matrix(0.6050695887003651,-0.16212790765689433,0.16212790765689433,0.6050695887003651,-26.629725407416288,332.41466802926925)" opacity="0.96"></path><path d="M283 734H333C361 734 383 756 383 784H333C305 784 283 762 283 734Z " transform="matrix(0.5714854203391889,-0.23089509749946086,0.23089509749946086,0.5714854203391889,-32.55402397504071,402.1306334298761)" opacity="0.95"></path><path d="M7 505H57C85 505 107 527 107 555H57C29 555 7 533 7 505Z " transform="matrix(0.25122107845641023,-0.4930491277828845,0.4930491277828845,0.25122107845641023,-218.63563919694417,424.956628701727)" opacity="0.85"></path><path d="M554 727H604C632 727 654 749 654 777H604C576 777 554 755 554 727Z " transform="matrix(-0.3265052461011167,-0.293986644073907,0.293986644073907,-0.3265052461011167,580.1312123014964,1175.0998780886796)" opacity="0.67"></path><path d="M611 326H661C689 326 711 348 711 376H661C633 376 611 354 611 326Z " transform="matrix(-0.38336621180855096,-0.10992849229193574,0.10992849229193574,-0.38336621180855096,875.8201652109829,558.2242737497709)" filter="url(#llleaves-blur-2)" opacity="0.61"></path><path d="M91 726H141C169 726 191 748 191 776H141C113 776 91 754 91 726Z " transform="matrix(0.5092538419185807,-0.3182171181569993,0.3182171181569993,0.5092538419185807,-169.78584744642643,413.4189783792828)" opacity="0.92"></path><path d="M525 29H575C603 29 625 51 625 79H575C547 79 525 57 525 29Z " transform="matrix(-0.37513109428058244,4.594030938713593e-17,-4.594030938713593e-17,-0.37513109428058244,790.7003792113348,74.25707909115143)" filter="url(#llleaves-blur-2)" opacity="0.58"></path><path d="M441 627H491C519 627 541 649 541 677H491C463 677 441 655 441 627Z " transform="matrix(0.1385983154819514,-0.517255955222102,0.517255955222102,0.1385983154819514,85.6973442935514,815.6065723198197)" opacity="0.82"></path><path d="M118 323H168C196 323 218 345 218 373H168C140 373 118 351 118 323Z " transform="matrix(0.5601106108071623,-0.249377310877034,0.249377310877034,0.5601106108071623,-12.881886800811088,194.97689566644922)" opacity="0.94"></path><path d="M-5 293H45C73 293 95 315 95 343H45C17 343 -5 321 -5 293Z " transform="matrix(0.17636073548971007,-0.5121887664041251,0.5121887664041251,0.17636073548971007,-125.81226081354876,284.9657806024578)" opacity="0.83"></path><path d="M390 125H440C468 125 490 147 490 175H440C412 175 390 153 390 125Z " transform="matrix(0.2794466267839829,-0.4840157555935961,0.4840157555935961,0.2794466267839829,244.44112087600809,321.0499384435849)" opacity="0.86"></path><path d="M607 435H657C685 435 707 457 707 485H657C629 485 607 463 607 435Z " transform="matrix(-0.38336621180855096,-0.10992849229193574,0.10992849229193574,-0.38336621180855096,858.3044947039276,708.5714768677352)" filter="url(#llleaves-blur-2)" opacity="0.61"></path><path d="M222 227H272C300 227 322 249 322 277H272C244 277 222 255 222 227Z " transform="matrix(0.6057000012891719,-0.16229682620096353,0.16229682620096353,0.6057000012891719,66.35079944670244,143.50833640179076)" opacity="0.96"></path><path d="M74 114H124C152 114 174 136 174 164H124C96 164 74 142 74 114Z " transform="matrix(0.3511611130996869,-0.4494657282635513,0.4494657282635513,0.3511611130996869,17.980285747005198,145.9223555838239)" opacity="0.88"></path></g><g fill="none" stroke-width="3" stroke="#b6b3f3"><path d="M705 27H755C783 27 805 49 805 77H755C727 77 705 55 705 27Z " transform="matrix(0.07906429695193012,0.18626381102639622,-0.18626381102639622,0.07906429695193012,704.9921739746653,-92.74052076642951)" filter="url(#llleaves-blur-3)" opacity="0.31"></path><path d="M377 717H427C455 717 477 739 477 767H427C399 767 377 745 377 717Z " transform="matrix(0.40311295256962404,-0.4174356822674665,0.4174356822674665,0.40311295256962404,-54.86650698968958,621.1352255215472)" opacity="0.89"></path><path d="M199 611H249C277 611 299 633 299 661H249C221 661 199 639 199 611Z " transform="matrix(0.6050695887003651,-0.16212790765689433,0.16212790765689433,0.6050695887003651,-4.775676856175664,291.54559059313453)" opacity="0.96"></path><path d="M513 439H563C591 439 613 461 613 489H563C535 489 513 467 513 439Z " transform="matrix(-0.16473045617753562,-0.45259320864423735,0.45259320864423735,-0.16473045617753562,445.73999801702644,795.2449081330822)" opacity="0.74"></path><path d="M322 198H372C400 198 422 220 422 248H372C344 248 322 226 322 198Z " transform="matrix(0.5238661392217554,-0.3024542564990108,0.3024542564990108,0.5238661392217554,109.67449701022758,218.69083437118059)" opacity="0.93"></path><path d="M713 719H763C791 719 813 741 813 769H763C735 769 713 747 713 719Z " transform="matrix(-0.29370071596672426,0.1561634407652365,-0.1561634407652365,-0.29370071596672426,1103.2792462119467,843.3606273753672)" filter="url(#llleaves-blur-2)" opacity="0.51"></path><path d="M702 131H752C780 131 802 153 802 181H752C724 181 702 159 702 131Z " transform="matrix(-0.18212821928340597,0.2331134902580216,-0.2331134902580216,-0.18212821928340597,925.3261253813728,9.110657534179097)" filter="url(#llleaves-blur-3)" opacity="0.45"></path><path d="M525 538H575C603 538 625 560 625 588H575C547 588 525 566 525 538Z " transform="matrix(-0.22666541184653355,-0.40891522743941194,0.40891522743941194,-0.22666541184653355,475.1133387633679,925.7388826472602)" opacity="0.72"></path><path d="M686 231H736C764 231 786 253 786 281H736C708 281 686 259 686 231Z " transform="matrix(-0.3169874248946599,0.12807123291739475,-0.12807123291739475,-0.3169874248946599,1002.0889803493228,242.88835334583038)" filter="url(#llleaves-blur-2)" opacity="0.52"></path><path d="M334 485H384C412 485 434 507 434 535H384C356 535 334 513 334 485Z " transform="matrix(0.4954903024618464,-0.3342124290233458,0.3342124290233458,0.4954903024618464,23.28338505274462,385.63751848942314)" opacity="0.92"></path><path d="M468 727H518C546 727 568 749 568 777H518C490 777 468 755 468 727Z " transform="matrix(-0.017774532019409064,-0.5089960008930814,0.5089960008930814,-0.017774532019409064,144.4422149144567,1029.0263765412117)" opacity="0.78"></path><path d="M0 32H50C78 32 100 54 100 82H50C22 82 0 60 0 32Z " transform="matrix(-0.30042680473296374,-0.33365776912657547,0.33365776912657547,-0.30042680473296374,46.00284739643338,90.8072163261077)" opacity="0.69"></path><path d="M134 205H184C212 205 234 227 234 255H184C156 255 134 233 134 205Z " transform="matrix(0.576905903050283,-0.22145342778063237,0.22145342778063237,0.576905903050283,26.91502544920249,138.05907301007127)" opacity="0.95"></path><path d="M537 632H587C615 632 637 654 637 682H587C559 682 537 660 537 632Z " transform="matrix(-0.28533537924562535,-0.35235984848927354,0.35235984848927354,-0.28533537924562535,522.9914471597293,1051.3005752275794)" opacity="0.70"></path><path d="M96 426H146C174 426 196 448 196 476H146C118 476 96 454 96 426Z " transform="matrix(0.5092538419185807,-0.3182171181569993,0.3182171181569993,0.5092538419185807,-71.8669812089195,267.786216545642)" opacity="0.92"></path><path d="M602 139H652C680 139 702 161 702 189H652C624 189 602 167 602 139Z " transform="matrix(-0.367461256073441,0.025695394149973714,-0.025695394149973714,-0.367461256073441,895.7987836004793,207.5102490102615)" filter="url(#llleaves-blur-2)" opacity="0.56"></path><path d="M125 524H175C203 524 225 546 225 574H175C147 574 125 552 125 524Z " transform="matrix(0.5601106108071623,-0.249377310877034,0.249377310877034,0.5601106108071623,-59.92750056274505,285.14030407034886)" opacity="0.94"></path><path d="M111 21H161C189 21 211 43 211 71H161C133 71 111 49 111 21Z " transform="matrix(0.06380357276980818,-0.5196383999798034,0.5196383999798034,0.06380357276980818,126.82425838498992,126.72681804933715)" opacity="0.80"></path><path d="M328 24H378C406 24 428 46 428 74H378C350 74 328 52 328 24Z " transform="matrix(0.21379687022509763,-0.5036738625255105,0.5036738625255105,0.21379687022509763,272.5047637911631,228.9126733936132)" opacity="0.84"></path><path d="M704 516H754C782 516 804 538 804 566H754C726 566 704 544 704 516Z " transform="matrix(-0.29370071596672426,0.1561634407652365,-0.1561634407652365,-0.29370071596672426,1059.9347612929032,582.1448530010096)" filter="url(#llleaves-blur-2)" opacity="0.51"></path><path d="M327 287H377C405 287 427 309 427 337H377C349 337 327 315 327 287Z " transform="matrix(0.5238661392217554,-0.3024542564990108,0.3024542564990108,0.5238661392217554,85.13673748570687,262.5790192629394)" opacity="0.93"></path><path d="M-3 719H47C75 719 97 741 97 769H47C19 769 -3 747 -3 719Z " transform="matrix(0.17636073548971007,-0.5121887664041251,0.5121887664041251,0.17636073548971007,-342.35739677268543,636.8604848166497)" opacity="0.83"></path><path d="M-11 159H39C67 159 89 181 89 209H39C11 209 -11 187 -11 159Z " transform="matrix(0.17636073548971007,-0.5121887664041251,0.5121887664041251,0.17636073548971007,-62.120801702457726,171.52498655965422)" opacity="0.83"></path><path d="M511 335H561C589 335 611 357 611 385H561C533 385 511 363 511 335Z " transform="matrix(-0.16473045617753562,-0.45259320864423735,0.45259320864423735,-0.16473045617753562,490.48023080367204,673.20775427333)" opacity="0.74"></path><path d="M180 116H230C258 116 280 138 280 166H230C202 166 180 144 180 116Z " transform="matrix(0.5429125986572266,-0.276627785867012,0.276627785867012,0.5429125986572266,66.1255845015892,128.0737143387438)" opacity="0.94"></path><path d="M55 233H105C133 233 155 255 155 283H105C77 283 55 261 55 233Z " transform="matrix(0.427210123561192,-0.39837988517154577,0.39837988517154577,0.427210123561192,-42.639073348183956,189.6096760642248)" opacity="0.90"></path><path d="M708 614H758C786 614 808 636 808 664H758C730 664 708 642 708 614Z " transform="matrix(-0.29370071596672426,0.1561634407652365,-0.1561634407652365,-0.29370071596672426,1080.4135813517632,708.3028694026875)" filter="url(#llleaves-blur-2)" opacity="0.51"></path><path d="M352 586H402C430 586 452 608 452 636H402C374 636 352 614 352 586Z " transform="matrix(0.45154876733427884,-0.3788944041287491,0.3788944041287491,0.45154876733427884,-11.027085391045716,487.4192536185127)" opacity="0.91"></path><path d="M311 392H361C389 392 411 414 411 442H361C333 442 311 420 311 392Z " transform="matrix(0.5538865849293093,-0.2582815563018564,0.2582815563018564,0.5538865849293093,53.343533862645245,279.26893590944815)" opacity="0.94"></path><path d="M289 644H339C367 644 389 666 389 694H339C311 694 289 672 289 644Z " transform="matrix(0.5714854203391889,-0.23089509749946086,0.23089509749946086,0.5714854203391889,-9.202377722124368,364.94969184539985)" opacity="0.95"></path><path d="M414 326H464C492 326 514 348 514 376H464C436 376 414 354 414 326Z " transform="matrix(0.28811360183527585,-0.47950155612055617,0.47950155612055617,0.28811360183527585,162.0102425501168,472.3608477957563)" opacity="0.86"></path><path d="M226 327H276C304 327 326 349 326 377H276C248 377 226 355 226 327Z " transform="matrix(0.6057000012891719,-0.16229682620096353,0.16229682620096353,0.6057000012891719,51.698316821449396,183.58752357767742)" opacity="0.96"></path><path d="M706 327H756C784 327 806 349 806 377H756C728 377 706 355 706 327Z " transform="matrix(-0.29370071596672426,0.1561634407652365,-0.1561634407652365,-0.29370071596672426,1033.0072724202066,337.32309080176816)" filter="url(#llleaves-blur-2)" opacity="0.51"></path><path d="M616 542H666C694 542 716 564 716 592H666C638 592 616 570 616 542Z " transform="matrix(-0.38336621180855096,-0.10992849229193574,0.10992849229193574,-0.38336621180855096,858.9924419349674,857.5810179618776)" filter="url(#llleaves-blur-2)" opacity="0.61"></path><path d="M557 234H607C635 234 657 256 657 284H607C579 284 557 262 557 234Z " transform="matrix(-0.3265052461011167,-0.293986644073907,0.293986644073907,-0.3265052461011167,729.0461435682358,522.0147516930508)" opacity="0.67"></path><path d="M637 734H687C715 734 737 756 737 784H687C659 784 637 762 637 734Z " transform="matrix(-0.3740238345060197,0.006528610316003456,-0.006528610316003456,-0.3740238345060197,948.9095895354822,1038.3989351029745)" filter="url(#llleaves-blur-2)" opacity="0.57"></path><path d="M278 113H328C356 113 378 135 378 163H328C300 163 278 141 278 113Z " transform="matrix(0.5422244716205363,-0.276277167629333,0.276277167629333,0.5422244716205363,112.02412417561615,153.79193389878725)" opacity="0.94"></path><path d="M433 521H483C511 521 533 543 533 571H483C455 571 433 549 433 521Z " transform="matrix(0.21403745639605104,-0.5042406480255356,0.5042406480255356,0.21403745639605104,104.30451473876496,672.6837818040899)" opacity="0.84"></path></g></svg>